<svg xmlns="http://www.w3.org/2000/svg" xml:space="preserve" width="48" height="48"><defs><clipPath id="a" clipPathUnits="userSpaceOnUse"><path d="M267 321.7h37.1v26.9H267Z"/></clipPath><clipPath id="b" clipPathUnits="userSpaceOnUse"><path d="M267 321.7h37.1v26.9H267Z"/></clipPath></defs><g clip-path="url(#a)" display="inline" transform="matrix(1.33333 0 0 -1.33333 -356.4 469.4)"><path fill="none" stroke="#f5f2df" stroke-dasharray="none" stroke-linecap="round" stroke-linejoin="round" stroke-miterlimit="10" stroke-opacity="1" stroke-width="2.74" d="M278 310.2a233.2 233.2 0 0 1-1.6 6.2l1.1-4.1.7-.2-3 11.3h0s0 0 0 0c.2 0 .2.1.1.3 0 .2 0 .3-.2.2v-.1l-2.4 8.4a1070.8 1070.8 0 0 0-3.4 12.1l.1-.7-.3 1.4h-.3 0l-.1-.1h0l.7-2.8.3-1.3s0 0 0 0l.5-1.6a1659.6 1659.6 0 0 0 7.3-28 169 169 0 0 0 1.2-5v-.3h.4l-.2 1-.9 3.3zm-7.5 29.6s0 0 0 0l.7-2.5zm31.6-5.6a13.8 13.8 0 0 0-.2 1.7c0 .4 0 .4-.3.2-.2-.2-.2-.2-.3 0l-.3.6a4 4 0 0 1-1 1.6l-.4.4-.7.6a3 3 0 0 0-1.4 1.6l-.6 1.2-.4.3a4 4 0 0 0-.4.4l-.5.3-.4.3.2 1.1.1.3-.4.2v-.1l-.3-.2c-.2-.2-.3-.2-1.1 0l-1.8.3a23.3 23.3 0 0 1-3.8-.4 6.6 6.6 0 0 0-2.7-.3 21.4 21.4 0 0 1-4.1 0 79.8 79.8 0 0 0-10.9.5h0-.1l-.2-.1v-.3h0a322.4 322.4 0 0 0 1.8-7.3l1-4.1a984.4 984.4 0 0 1 2-8.6l.1-.4.2.1s0 0 0 0l.2.2.2.1.3.2c.5.3 2 1 2.7 1.2.2 0 .3 0 .6.3a9.4 9.4 0 0 0 1.3.7 14.2 14.2 0 0 0 2.1 1l2.5.8.9.2.5-.1a19.4 19.4 0 0 1 3.4-.4c.2-.1.3-.1 1.3.2l1.3.2 1 .2h.4l.2.3 1.2 1.1c.5.3.6.4.9.4l.4.1a23.3 23.3 0 0 1 3.3 1.5l.5.2.6.1.5.2.1-.1.1-.1h0l.2.5c0 .2.1.3.2.3v.8zm-23.1 10s0 0 0 0h0s0 0 0 0zm.2 0h-.2s0 0 0 0h.2s0 0 0 0zm0 0s0 0 0 0a50.7 50.7 0 0 1 0 0zm16.2.5s0 0 0 0v0s0 0 0 0zm0 0s0 0 0 0v-.1s0 0 0 0zm-.2.2s0 0 0 0 0 0 0 0 0 0 0 0 0 0 0 0zm-.2-.2s0 0 0 0a2.1 2.1 0 0 0 0 0zm1.6-13.8h-.5l-.7-.5-.5-.4.1.1s0 0 0 0a8.7 8.7 0 0 0 1.1.7l.5.1s0 0 0 0 0 0 0 0 0 0 0 0zm.2 0s0 0 0 0 0 0 0 0zm.3.1a2 2 0 0 0 0 0s0 0 0 0zm3.5 6.4s0 0 0 0 0 0 0 0 0 0 0 0zm.6-1.3a.5.5 0 0 1 0 0s0 0 0 0zm.1-.1a.3.3 0 0 1 0 0zm.3 0s0 0 0 0 0 0 0 0zm.1 0h0zm0 0h0zm.1-3v.2s0 0 0 0v-.2zm0 .3v0a.6.6 0 0 0 0 0zm.2.2a.3.3 0 0 1 0 0h0z"/></g><g display="inline"><path fill="#a2824c" fill-opacity="1" fill-rule="nonzero" stroke="none" d="m0 0 6.2-23.2h.7l-.4 1.7L.4.1Z" display="inline" transform="matrix(1.33333 0 0 -1.33333 1.8 9.6)"/></g><g clip-path="url(#b)" display="inline" transform="matrix(1.33333 0 0 -1.33333 -356.4 469.4)"><path fill="#dcb777" fill-opacity="1" fill-rule="nonzero" stroke="none" d="M270.5 339.9v-.1a131.4 131.4 0 0 0 2.9-10.7 357 357 0 0 0-.6 1.8l-1.6 5.8a49.3 49.3 0 0 0-.7 3.2m0 .2c0-.1 0-.1 0 0zm-1.8 4.8.5-2 .5-2a1259.7 1259.7 0 0 0 6-23 1315 1315 0 0 1 3-11.7v-.3h.4l-.2 1a618 618 0 0 0-4.2 15.8 277.7 277.7 0 0 0-1 4.5l.6-2.4.4-1.6h.2c0-.2.1-.2.2-.1v.1c0 .2 0 .2.2.3v.2c0 .2 0 .3-.2.2l-.2-.1a106.9 106.9 0 0 0-2.2 8 1275.4 1275.4 0 0 0-3 11 696.8 696.8 0 0 1-.5.7l-.4 1.4z" display="inline"/></g><path fill="#d32027" fill-opacity="1" fill-rule="nonzero" stroke="none" d="M270.6 344.7v-.6a527.6 527.6 0 0 0 4.7-19.5c.1-.2.3-.1.8.2a26 26 0 0 0 2.5 1.1c.3 0 .4.1.6.3a15 15 0 0 0 3.5 1.8l2.3.6.9.3.6-.2 1-.1 1-.2h1.3l.3-.1 1 .2 1.2.3a11.5 11.5 0 0 1 1.3.2c.3 0 .3 0 .5.3.4.4.8.8 1.3 1l.7.5.5.1.5.1a26.7 26.7 0 0 1 3.1 1.5l1 .3h.3c.2 0 .2 0 .3.2l.2.5v.6a19 19 0 0 0-.2 1.8c0 .2 0 .2-.2 0-.2 0-.3 0-.6.6-.5 1-.6 1.3-1 1.7l-.5.5-.7.6c-.9.6-1 .8-1.5 1.9l-.4.8-.4.4-.5.3-.4.4-.4.3.2 1.2-.1.2h-.2l-.5-.3-1 .2-2 .3c-.3 0-1 0-1.8-.2l-.6-.1a15.6 15.6 0 0 1-2-.4h-1.6a41.4 41.4 0 0 1-6.7 0H277.6a54.6 54.6 0 0 1-2.8 0l-1.5.1-.8.1a76.8 76.8 0 0 0-1.9.2" display="inline" transform="matrix(1.33333 0 0 -1.33333 -356.4 469.4)"/><path fill="#a31e22" fill-opacity="1" fill-rule="nonzero" stroke="none" d="m270 344.7.1-.3a322.4 322.4 0 0 0 1.8-7.3l1-4.1a857 857 0 0 1 2-8.6l.1-.4.2.1.2.2.2.1.3.2c.5.3 2 1 2.7 1.2.2 0 .3 0 .6.3a8.7 8.7 0 0 0 1.3.7 14.4 14.4 0 0 0 2.1 1l2.6.8.8.2.5-.1a19.4 19.4 0 0 1 3.4-.4c.2-.1.3-.1 1.3.2l1.3.2 1 .2h.4l.2.3 1.2 1.1c.5.3.6.4.9.4l.4.1a23 23 0 0 1 3.3 1.5l.5.2.6.1.5.2.1-.1.1-.1.2.5c0 .2.1.3.2.3v.8a12.5 12.5 0 0 0-.2 1.7c0 .4 0 .4-.3.2-.2-.2-.2-.2-.3 0l-.3.6a4 4 0 0 1-1 1.6l-.4.4-.7.6a3 3 0 0 0-1.4 1.6 9 9 0 0 1-.6 1.2l-.4.3a4 4 0 0 0-.4.4l-.5.3-.4.3.2 1.1.1.3-.4.2v-.1l-.3-.2c-.2-.2-.3-.2-1.1 0l-1.8.3a23.5 23.5 0 0 1-3.8-.4 6.6 6.6 0 0 0-2.7-.3 21.4 21.4 0 0 1-4.1 0 83.2 83.2 0 0 0-10.9.5h-.1zm2-.1a52.2 52.2 0 0 1 5.6-.4H279.2c-.1 0-.1 0 0 0h2.1a40.8 40.8 0 0 0 5.8 0 24.8 24.8 0 0 1 2 .5 55.6 55.6 0 0 1 2.4.3l2.2-.3.9-.2.4.2-.1-.1h.4l-.1-1v.1h-.5l-.2.1-.8.3a2 2 0 0 1-.8.3 2 2 0 0 0-.3 0l-.3.2h-.4c-.1.2-.1.2-.6 0h-.7l-.5-.1-.4-.2a7.4 7.4 0 0 1-1 0h-.5l-.5-.3-.4-.1s0-.1 0 0l.2-.1h.1l.2-.2c.2-.1.2-.1.2 0l.1.1v.2h2a4.8 4.8 0 0 1 .6 0h.6a3.2 3.2 0 0 0 1.1.2h.4l1-.2c.2 0 .5-.2.5-.3 0-.2.4-.4.6-.3h.1c.1-.1.1 0 .2.3v-.2l.4-.3.4-.4.5-.3.4-.4.4-.8.1-.3v.1a7.4 7.4 0 0 1-.3.5l.2-.5.6-1 .1-.1v.2c.1-.3.4-.5.8-.8l.7-.6.5-.5.6-.8.1-.5.5-1c.1 0 .1 0 0 .2.2-.2.3-.2.4-.1v-.3l.1-.1-.1-.4h-.3l-.1-.2-.2-.1c-.3-.2-.3-.2-.4 0l-.3.2c-.2 0-.2 0-.1.2v.1l-.5-.1h-.2l.3.4-.2.1h-.4c-.4.2-1 0-1.3-.1l-.3-.1h-.6l-.3.2h-.1l.1.1 1.1.3.3.1.3.1h.2l.1.1h-.1l-.2.2a13.3 13.3 0 0 1-2.3-.7 14 14 0 0 1-.6 0h-.4a16.7 16.7 0 0 0-1.2.2v.3l.3.2v.2l-.1.2h-.2c0 .1 0 .2-.2.3h-.2c-.1-.1-.2 0-.4 0 0 .2-.2.3-.3.4l-.2.1-.6.3-.7.2-1.6.6a11.4 11.4 0 0 1-2.4.2H285.6l-.6.2-.6.1c0 .1 0 .2.3.3l1 .6h2.2l.3-.1h.5c.4.1.6.2.8.1h.2c0 .1.2.2.3.1h.1l.1.2h.2v.2l-.3.1c-.2 0-.2.1-.2.2v.2s-.1 0 0 0l-.1-.2h-.1c0-.1 0-.1-.1 0h-.2v-.2s-.1 0 0 .1v.2s-.2.1-.2 0 0-.1-.1 0v.1l-.1.2v.1h-.1c0 .1 0 .1 0 0 0 0 .2 0 .1.1h.1c0-.2.1-.3 0-.1l.2.3-.2.2v.1c.2.1.1.2 0 .2l-.3.1a6 6 0 0 1-.3.2V343.1c.1 0 0 0 0 .1l-.1.1-.3.2v-.1h-.1v-.1l-.1-.1c0-.2-.4-.3-.6-.1h-.5l-.3-.2h-.3a9.4 9.4 0 0 0-1 0h-.2l-1.1.2h-1.1c-.2.2-.5.2-.6.2h-.5l-.2.1h-.2l-.1-.1v-.2l.4-.2H282c.2 0 .2-.1 0-.2h-.5l-.6.1h-.1s-.1.1-.2 0l-.4.1h-.2l-.2.1h-.2l-.3.1H279l-.2.1h-.3l-.2.1h-.2l-.1.1h-.2l-.3.1h-.3l-.2.1h-.5v-.2h-.1c0-.1 0-.1 0 0l-1.6.4-1.1.2-.7.2c-.7.1-.9.2-.8.3h.5-.6m.7-.9.4-.1.3-.3.4-.3c.2-.2.4-.3.3-.4l-.7.3-.4.3-.1.2-.2.2c-.1 0-.1 0 0 .1m-.8-.2.3-.2-.3.2m-.7-.6.3-.1.2-.3.3-.2v-.2a16.3 16.3 0 0 0 3.4-2.4l.2-.1.2-.3.3-.6.4-.5.3-.6-.7.4-.2.1a7.5 7.5 0 0 0-.5.4l-.4.2-.5.3c-.2 0-.2.1-.3.2l-.2.2-.5.5a11.3 11.3 0 0 1-.5.5l-.5.5a3.7 3.7 0 0 0-.5.5l-.2.2h.3l.3-.2.2-.1h.1l-.4.3-.5.4-.2.1-.3.3-.1.5m.5-1.1v-.1m2.7.7h.1l.9-.5.3-.2.6-.5.1-.1c0-.1 0-.1 0 0a30.2 30.2 0 0 0-2 1.3m5.5 1.1h-.1.1m-8.2-2.3.2-.2a7.2 7.2 0 0 1 1.2-1.4 10.7 10.7 0 0 1 1.6-1.3l-.1.1-.1.3c-.1.2 0 .2.4-.2l.3-.2.9-.8.8-.6h.1l.2-.2.2-.3 1.1-1.1c.3-.2.3-.2.3-.4h-.2l-.3-.3.3.1h.4l.2.1h.7l1-.5c.5-.1.6-.2.8-.4a4 4 0 0 1 .9-.6l.3-.1.4-.2.4-.1h1.2l.1.1c.1.1.4.4.6.4h.8a84 84 0 0 0 7.4-1.7l1-.2.8-.2c.2 0 .2-.1.2-.2l-.3-.1-.6-.2-.7-.3a5.8 5.8 0 0 1-1-.4h-.2l-.2.1a3.4 3.4 0 0 1-1.3.5 5.1 5.1 0 0 1-.7.2h-.4a10 10 0 0 0-1 .4h-.1l-.2.1-.6.2-.3.2h-.1l-.2.2-.2.1-.8.4c-.4.2-.7.2-1 .2l-.3-.1h-.1l-.1-.1-.3-.2c-.3-.2-.8-.3-1-.3a1 1 0 0 0-.5.4l-.3.1.3-.4h.1l.1-.2c.1-.2.2-.3.5-.4l.3-.2s.2 0 .3-.2l.6-.5.7-.5c.3-.3.4-.4.6-.4l.6-.4.8-.4.2-.2h-.6l-.7.2a39 39 0 0 0-1.6.4c0 .2-.5.4-1 .6a25 25 0 0 1-2.1.7c-.2.1-.2.2-.2.3 0 .2-.2.4-.3.5l-.1.1c0 .2-.3.4-.6.5h-.2v.2l-.3.1-.4.2h-.1l-.1-.3v-.2l.5-.4.4-.4.1-.1.4-.4h-.1l-.3.2h-.6l-.3.2-.5.1a11.6 11.6 0 0 1-1.3.6l-.5.6-.3.3-.5.7-.2.2-.2.4v.2l-.6.7a6.6 6.6 0 0 1-1.3 1.6 16.7 16.7 0 0 1-1.7 1.3l.4-.6.2-.3.2-.2.2-.2.2-.2.2-.5c0-.1 0-.2-.2 0h-.2c-.2 0-.2 0-.2.2l-.1.3-.4.4-.4.4s0 .2-.2.3a2 2 0 0 0-.4.8v.3c-.2.1-.3 1-.3 1l.2-.2.1-.1.2-.2.1-.2a23.6 23.6 0 0 0 1.3-1l.2-.2.7-.5v.3a7 7 0 0 1-1 1 18.5 18.5 0 0 1-1.6 1.5l-.6.8v.5m8.3 2.3.3-.1h.6l-.1.1H280m7 .8c-.1 0-.1 0 0 0h1v.2l-1-.2m-4.7-1.4h.1v-.2c-.1 0-.1.1 0 .2m12.8 2h.2-.1M290 343s-.1 0 0 0v-.1.1m-1-.7h.1-.1m-1.8-1h.4l.4-.2H288.3l.6-.4-.6-.2h-.6l-.4.2-.4.1h-.2l-.2.2.2.2.4.1m4 .8v-.2l.1-.1.1-.1v-.2l.1.2v.1s-.1 0 0 .1c0 .2 0 .2-.2.2m-.3-.7s.1 0 0 0m-1-.4s-.1-.1-.1 0m1.7.2v-.2.1c.1 0 .1.1 0 .1m-.2 0v-.1m-18.2-5.9.2-.5.3-.7.3-.5v-.2l.5-.2.1-.3a215.6 215.6 0 0 1 1-1.3c.2-.2.7-.5 1-.5.2 0 .3-.1.3-.2v-.3h.2l.2-.1.3-.1c.1 0 .2 0 .1.2v.2c.1 0 .3-.2.3-.4l.1-.4v-.2h-.5l-.1-.2h.5l.6-.6.3-.4.3-.4v-.1l.2-.3.4-.4.2-.3v-.3l-.7-.5c-.4-.2-.4-.2-.7 0a7 7 0 0 1-1.2.3l-.6.2-1 .1v-.1l.3-.1.2-.1.2-.1c.1 0 .2 0 0-.1H275.3a5.6 5.6 0 0 0-.3 1.4l.2.4v.2l-.1.2v.2h-.2c-.1 0-.2.1-.2.3l-.1.3a6.8 6.8 0 0 0-.2.8v.4l.3-.2c0-.1 0-.2.3-.4l.3-.4.9-.6h.2l.3-.2H277.2c0-.1 0 0 0 0h.2v.2l-.1.2c-.2 0-.2.1-.2.2v.1h-.2l-.5.2c-.3 0-.6.2-.7.4l-.2.2-.2.2.5-.1.3-.2.3.1-.6.5c-.2 0-.6.4-.6.4v.1l-.2.2-.2.2-.3.3-.1.1-.4.6-.2.3v.3l-.2.2-.2.5a37.7 37.7 0 0 1-.3 1.3m9.1 1.3h.2-.2m-4.7-2.1h-.1c0-.1 0-.1.1 0m1.8-.1v-.1l.4-.3.3-.2-.2.3-.2.2-.3.1m16 2.8-.2-.2h.2c.3.2.3.2.1.2h-.1m-15.5-4.5c.2-.1.2-.1.1 0m13.7 3.8.1-.1v-.1c0-.1-.1-.1-.2 0-.1-.1-.4 0-.4 0l.2.1h.2v.1m-18.8-7.9v-.1.1M282.2 330.3l.5-.2h.4l.2-.2.4-.1.2-.1.1-.2H283.7l-.7.2-.6.3-.2.3m-5-1.8-.1-.2c0-.1 0-.2.2-.2.3 0 .3.2 0 .4h-.2M276.6 328.1v-.1l.1-.2c-.3 0-.3-.2-.1-.3l.8-.2h.2v.2l-.2.2h-.5c-.1 0-.1 0 0 .2l-.2.2h-.1m-.4-.3c.1 0 0 0 0 0M301.4 334.3c-.1-.1-.1-.1-.1 0m.3-.7h.4l-.1-.3-.3-.1a.7.7 0 0 0-.3-.2l-.3-.1-.6-.2a3 3 0 0 1-1.1-.4c-.7-.3-1.2-.5-1.3-.4l.2.2a16 16 0 0 1 .8.3l.8.3a13.3 13.3 0 0 0 1.8.9m-26.2-7.6.3-.2c.2 0 .3-.2.3-.2v-.1h-.4l-.2.3v.2m26.4 7.2v-.2.2m-25.5-7.9h.1l.1-.1h-.3v.1m20 5.5.3.1h.1-.5l-.7-.5-.5-.4-.2-.1a10.8 10.8 0 0 0 1.4 1m1.2.2h-.2.2m-21.7-6.2h.2c.2 0 .2 0 0-.1 0-.1-.1-.2-.3 0v.1m17.8 4.7 1 .1-.1-.2a1 1 0 0 0-.7 0h-.2" display="inline" transform="matrix(1.33333 0 0 -1.33333 -356.4 469.4)"/></svg>
