<svg xmlns="http://www.w3.org/2000/svg" width="28" height="30"><path fill="#1d75a4" fill-opacity="1" fill-rule="nonzero" stroke="none" d="m0 0-8.893 5.134v10.272L0 10.273Z" transform="matrix(1.33333 0 0 -1.33333 13.999 28.698)"/><path fill="none" stroke="#000" stroke-dasharray="none" stroke-linecap="round" stroke-linejoin="round" stroke-miterlimit="4" stroke-opacity="1" stroke-width=".7" d="m0 0-8.893 5.134v10.272L0 10.273Z" transform="matrix(1.33333 0 0 -1.33333 13.999 28.698)"/><path fill="#4a84ae" fill-opacity="1" fill-rule="nonzero" stroke="none" d="m0 0-8.896 5.137L0 10.275l8.898-5.138Z" transform="matrix(1.33333 0 0 -1.33333 13.999 15.002)"/><path fill="none" stroke="#000" stroke-dasharray="none" stroke-linecap="round" stroke-linejoin="round" stroke-miterlimit="4" stroke-opacity="1" stroke-width=".7" d="m0 0-8.896 5.137L0 10.275l8.898-5.138Z" transform="matrix(1.33333 0 0 -1.33333 13.999 15.002)"/><path fill="#16628a" fill-opacity="1" fill-rule="nonzero" stroke="none" d="m0 0-8.895-5.133V5.14L0 10.273Z" transform="matrix(1.33333 0 0 -1.33333 25.858 21.854)"/><path fill="none" stroke="#000" stroke-dasharray="none" stroke-linecap="round" stroke-linejoin="round" stroke-miterlimit="4" stroke-opacity="1" stroke-width=".7" d="m0 0-8.895-5.133V5.14L0 10.273Z" transform="matrix(1.33333 0 0 -1.33333 25.858 21.854)"/></svg>
