<svg xmlns="http://www.w3.org/2000/svg" width="40" height="32"><defs><linearGradient id="a" x1="0" x2="1" y1="0" y2="0" gradientTransform="matrix(27.7188 0 0 -27.7188 8.551 680.908)" gradientUnits="userSpaceOnUse" spreadMethod="pad"><stop offset="0" stop-color="#16628a" stop-opacity="1"/><stop offset=".528" stop-color="#1d75a4" stop-opacity="1"/><stop offset="1" stop-color="#16628a" stop-opacity="1"/></linearGradient></defs><path fill="url(#a)" stroke="none" d="M8.551 678.694v-4.797c0-4.684 6.205-8.482 13.861-8.482 7.653 0 13.858 3.798 13.858 8.482v5.011z" transform="matrix(1.33333 0 0 -1.33333 -9.88 917.886)"/><path fill="none" stroke="#000" stroke-dasharray="none" stroke-linecap="butt" stroke-linejoin="miter" stroke-miterlimit="4" stroke-opacity="1" stroke-width=".7" d="M36.27 678.908v-5.01c0-4.684-6.205-8.483-13.858-8.483-7.656 0-13.861 3.8-13.861 8.482v4.798" transform="matrix(1.33333 0 0 -1.33333 -9.88 917.886)"/><path fill="#1d75a4" fill-opacity="1" fill-rule="nonzero" stroke="none" d="M36.27 678.934c0-4.683-6.205-8.482-13.858-8.482-7.656 0-13.861 3.8-13.861 8.482 0 4.683 6.205 8.48 13.86 8.48 7.654 0 13.859-3.797 13.859-8.48" transform="matrix(1.33333 0 0 -1.33333 -9.88 917.886)"/><path fill="none" stroke="#000" stroke-dasharray="none" stroke-linecap="butt" stroke-linejoin="miter" stroke-miterlimit="4" stroke-opacity="1" stroke-width=".7" d="M36.27 678.934c0-4.683-6.205-8.482-13.858-8.482-7.656 0-13.861 3.8-13.861 8.482 0 4.683 6.205 8.48 13.86 8.48 7.654 0 13.859-3.797 13.859-8.48z" transform="matrix(1.33333 0 0 -1.33333 -9.88 917.886)"/></svg>
