<svg xmlns="http://www.w3.org/2000/svg" width="40" height="40"><defs><linearGradient id="a" x1="0" x2="1" y1="0" y2="0" gradientTransform="matrix(27.7188 0 0 -27.7188 285.35 544.31)" gradientUnits="userSpaceOnUse" spreadMethod="pad"><stop offset="0" stop-color="#16628a" stop-opacity="1"/><stop offset=".528" stop-color="#3f80ac" stop-opacity="1"/><stop offset="1" stop-color="#16628a" stop-opacity="1"/></linearGradient><clipPath id="b" clipPathUnits="userSpaceOnUse"><path d="M0 0h504v702H0Z"/></clipPath></defs><path fill="url(#a)" stroke="none" d="M285.35 542.096v-10.114c0-4.686 6.205-8.484 13.86-8.484 7.654 0 13.859 3.798 13.859 8.484v10.328z" transform="matrix(1.33333 0 0 -1.33333 -378.946 736.21)"/><g clip-path="url(#b)" transform="matrix(1.33333 0 0 -1.33333 -378.946 736.21)"><path fill="none" stroke="#000" stroke-dasharray="none" stroke-linecap="butt" stroke-linejoin="miter" stroke-miterlimit="4" stroke-opacity="1" stroke-width=".7" d="M0 0v-10.329c0-4.686-6.205-8.483-13.859-8.483-7.655 0-13.86 3.797-13.86 8.483V-.215" transform="translate(313.069 542.31)"/><path fill="#1d75a4" fill-opacity="1" fill-rule="nonzero" stroke="none" d="M0 0c0-4.684-6.205-8.482-13.859-8.482-7.655 0-13.86 3.798-13.86 8.482 0 4.684 6.205 8.48 13.86 8.48C-6.205 8.48 0 4.684 0 0" transform="translate(313.069 542.336)"/><path fill="none" stroke="#000" stroke-dasharray="none" stroke-linecap="butt" stroke-linejoin="miter" stroke-miterlimit="4" stroke-opacity="1" stroke-width=".7" d="M0 0c0-4.684-6.205-8.482-13.859-8.482-7.655 0-13.86 3.798-13.86 8.482 0 4.684 6.205 8.48 13.86 8.48C-6.205 8.48 0 4.684 0 0Z" transform="translate(313.069 542.336)"/><path fill="#f1b81b" fill-opacity="1" fill-rule="nonzero" stroke="none" d="M0 0v-.1c-.012-.002-.031-.001-.033-.004-.063-.143-.154-.2-.367-.211-.373-.018-.746-.042-1.119-.049a18.286 18.286 0 0 0-2.17.101 6.912 6.912 0 0 0-1.446.32c-.506.17-.966.39-1.361.678a.74.74 0 0 1-.465.132C-7.682.862-8.404.869-9.125.862a1.816 1.816 0 0 1-.519-.08 3.062 3.062 0 0 1-.889-.457c-.246-.178-.504-.346-.762-.515a2.686 2.686 0 0 0-.832-.344c-.314-.081-.635-.049-.951-.063-.152-.007-.305 0-.455-.002a28.087 28.087 0 0 1-.713-.013c-.422-.01-.842-.002-1.262-.004-.039 0-.078-.01-.115-.016h-.904V-.1c.043.094.068.193.129.278.205.283.422.56.636.839.174.222.354.442.52.668.045.059.076.13.078.199.008.308.002.615.002.924 0 .241.057.476.158.705.168.389.457.728.832 1.029.326.26.696.483 1.104.676.463.217.957.394 1.474.531.321.086.491.031.713-.149.059-.047.088-.044.119.014a.538.538 0 0 0 .09.12c.145.138.348.186.58.184l.366-.001c-.116.128-.116.24.013.351.082.073.145.154.211.232.018.022.039.052.031.075-.066.21-.23.377-.48.487-.121.054-.191.123-.227.212-.054.137.098.311.289.341a.132.132 0 0 1 .082.048c.139.176.276.353.409.531.121.167.226.336.312.513.1.203.209.4.268.611.068.251.138.5.207.751.015.051.039.103.045.156.007.091-.004.186.011.277.03.152.178.233.36.289h.185c.008-.007.014-.016.024-.018.265-.062.334-.214.349-.395.008-.122.018-.247.049-.367.067-.259.139-.516.229-.772.174-.5.455-.971.822-1.412.055-.07.103-.142.154-.212.061.027.207-.024.287-.122.086-.107.108-.306-.146-.418-.006.01-.012.021-.016.025-.023-.025-.039-.067-.074-.078-.164-.053-.246-.162-.326-.265-.076-.103-.154-.219.006-.331.054-.036.078-.093.127-.133.131-.116.164-.235.045-.364.205-.012.404-.017.601-.038.178-.02.317-.087.385-.218.039-.074.051-.187.234-.161.006.001.012-.005.02-.007.49-.109.961-.254 1.414-.432a6.32 6.32 0 0 0 1.088-.557c.263-.172.492-.368.678-.585.162-.187.31-.383.373-.599.052-.184.078-.371.111-.557.006-.038-.002-.068.072-.087.195-.047.299-.166.299-.314 0-.222-.002-.443 0-.664.002-.103.004-.203-.092-.281C-.842 1.006-.449.56-.076.106L-.125.098 0 0" transform="translate(307.573 538.587)"/></g></svg>
