<svg xmlns="http://www.w3.org/2000/svg" width="40" height="40"><defs><linearGradient id="a" x1="0" x2="1" y1="0" y2="0" gradientTransform="matrix(31.0977 0 0 -31.0977 284.55 394.898)" gradientUnits="userSpaceOnUse" spreadMethod="pad"><stop offset="0" stop-color="#c47615" stop-opacity="1"/><stop offset=".528" stop-color="#ec8d1c" stop-opacity="1"/><stop offset="1" stop-color="#c47615" stop-opacity="1"/></linearGradient><clipPath id="b" clipPathUnits="userSpaceOnUse"><path d="M0 0h504v702H0Z"/></clipPath></defs><path fill="url(#a)" stroke="none" d="M285.35 392.684v-10.116c0-4.685 6.205-8.482 13.86-8.482 7.654 0 13.859 3.797 13.859 8.482v10.33z" transform="matrix(1.33333 0 0 -1.33333 -378.946 536.992)"/><g clip-path="url(#b)" transform="matrix(1.33333 0 0 -1.33333 -378.946 536.992)"><path fill="none" stroke="#000" stroke-dasharray="none" stroke-linecap="butt" stroke-linejoin="miter" stroke-miterlimit="4" stroke-opacity="1" stroke-width=".7" d="M0 0v-10.33c0-4.685-6.205-8.482-13.859-8.482-7.655 0-13.86 3.797-13.86 8.482V-.215" transform="translate(313.069 392.898)"/><path fill="#ec8e1c" fill-opacity="1" fill-rule="nonzero" stroke="none" d="M0 0c0-4.685-6.205-8.482-13.859-8.482-7.655 0-13.86 3.797-13.86 8.482 0 4.683 6.205 8.479 13.86 8.479C-6.205 8.479 0 4.683 0 0" transform="translate(313.069 392.923)"/><path fill="none" stroke="#000" stroke-dasharray="none" stroke-linecap="butt" stroke-linejoin="miter" stroke-miterlimit="4" stroke-opacity="1" stroke-width=".7" d="M0 0c0-4.685-6.205-8.482-13.859-8.482-7.655 0-13.86 3.797-13.86 8.482 0 4.683 6.205 8.479 13.86 8.479C-6.205 8.479 0 4.683 0 0Z" transform="translate(313.069 392.923)"/></g><path fill="#28903b" fill-opacity="1" fill-rule="nonzero" stroke="none" d="m0 0 1.607-4.027h5.204L2.602-6.519l1.607-4.03L0-8.058l-4.207-2.491 1.607 4.03-4.209 2.492h5.202z" transform="matrix(1.33333 0 0 -1.33333 20.347 5.223)"/></svg>
