<svg xmlns="http://www.w3.org/2000/svg" width="28" height="48"><defs><clipPath id="b" clipPathUnits="userSpaceOnUse"><path d="M0 0h504v702H0Z"/></clipPath><clipPath id="d" clipPathUnits="userSpaceOnUse"><path d="M0 0h504v702H0Z"/></clipPath><radialGradient id="c" cx="0" cy="0" r="1" fx="0" fy="0" gradientTransform="matrix(2.91836 0 0 -2.94233 294.024 433.68)" gradientUnits="userSpaceOnUse" spreadMethod="pad"><stop offset="0" stop-color="#57545c" stop-opacity="1"/><stop offset=".487" stop-color="#57545c" stop-opacity="1"/><stop offset="1" stop-color="#000" stop-opacity="1"/></radialGradient><linearGradient id="a" x1="0" x2="1" y1="0" y2="0" gradientTransform="scale(15.39175 -15.39175) rotate(36.418 52.59 15.542)" gradientUnits="userSpaceOnUse" spreadMethod="pad"><stop offset="0" stop-color="#37343a" stop-opacity="1"/><stop offset=".487" stop-color="#57545c" stop-opacity="1"/><stop offset="1" stop-color="#000" stop-opacity="1"/></linearGradient></defs><path fill="url(#a)" stroke="none" d="M292.281 433.818s-.062-3.441-.062-8.373c0-4.93-6.819-7.644-6.819-13.122v-.794c0-4.129 3.945-7.476 8.813-7.476 4.867 0 8.811 3.347 8.811 7.476v.984c0 5.781-6.614 8.494-6.614 12.932v8.619z" transform="matrix(1.33333 0 0 -1.33333 -378.283 584.961)"/><g clip-path="url(#b)" transform="matrix(1.33333 0 0 -1.33333 -378.283 584.961)"><path fill="none" stroke="#000" stroke-dasharray="none" stroke-linecap="butt" stroke-linejoin="miter" stroke-miterlimit="4" stroke-opacity="1" stroke-width=".8" d="M0 0s-.062-3.44-.062-8.372c0-4.931-6.819-7.645-6.819-13.122v-.794c0-4.129 3.944-7.477 8.813-7.477 4.867 0 8.811 3.348 8.811 7.477v.983c0 5.782-6.614 8.494-6.614 12.933V.246" transform="translate(292.28 433.818)"/></g><path fill="url(#c)" stroke="none" d="M289.26 432.397c0-2.001 1.193-3.691 2.877-4.523 1.116-.552 3.265-.419 4.256.01 1.713.742 2.852 2.522 2.852 4.513a4.993 4.993 0 0 1-9.985 0" transform="matrix(1.33333 0 0 -1.33333 -378.283 584.961)"/><g clip-path="url(#d)" transform="matrix(1.33333 0 0 -1.33333 -378.283 584.961)"><path fill="none" stroke="#000" stroke-dasharray="none" stroke-linecap="butt" stroke-linejoin="miter" stroke-miterlimit="4" stroke-opacity="1" stroke-width=".8" d="M0 0c1.713.742 2.852 2.522 2.852 4.513a4.993 4.993 0 0 1-9.985 0c0-2.001 1.193-3.691 2.877-4.524C-3.14-.562-.99-.429 0 0Z" transform="translate(296.393 427.884)"/></g></svg>
