<svg xmlns="http://www.w3.org/2000/svg" width="40" height="40"><defs><linearGradient id="a" x1="0" x2="1" y1="0" y2="0" gradientTransform="matrix(27.7188 0 0 -27.7188 285.35 364.983)" gradientUnits="userSpaceOnUse" spreadMethod="pad"><stop offset="0" stop-color="#502f60" stop-opacity="1"/><stop offset=".528" stop-color="#794e8f" stop-opacity="1"/><stop offset="1" stop-color="#502f60" stop-opacity="1"/></linearGradient><clipPath id="b" clipPathUnits="userSpaceOnUse"><path d="M0 0h504v702H0Z"/></clipPath></defs><path fill="url(#a)" stroke="none" d="M285.35 362.767v-10.115c0-4.685 6.205-8.483 13.86-8.483 7.654 0 13.859 3.798 13.859 8.483v10.331z" transform="matrix(1.33333 0 0 -1.33333 -378.946 497.103)"/><g clip-path="url(#b)" transform="matrix(1.33333 0 0 -1.33333 -378.946 497.103)"><path fill="none" stroke="#000" stroke-dasharray="none" stroke-linecap="butt" stroke-linejoin="miter" stroke-miterlimit="4" stroke-opacity="1" stroke-width=".7" d="M0 0v-10.33c0-4.686-6.205-8.484-13.859-8.484-7.655 0-13.86 3.798-13.86 8.484V-.216" transform="translate(313.069 362.983)"/><path fill="#794e8f" fill-opacity="1" fill-rule="nonzero" stroke="none" d="M0 0c0-4.684-6.205-8.481-13.859-8.481-7.655 0-13.86 3.797-13.86 8.481 0 4.682 6.205 8.479 13.86 8.479C-6.205 8.479 0 4.682 0 0" transform="translate(313.069 363.007)"/><path fill="none" stroke="#000" stroke-dasharray="none" stroke-linecap="butt" stroke-linejoin="miter" stroke-miterlimit="4" stroke-opacity="1" stroke-width=".7" d="M0 0c0-4.684-6.205-8.481-13.859-8.481-7.655 0-13.86 3.797-13.86 8.481 0 4.682 6.205 8.479 13.86 8.479C-6.205 8.479 0 4.682 0 0Z" transform="translate(313.069 363.007)"/></g><path fill="#3aa9c8" fill-opacity="1" fill-rule="nonzero" stroke="none" d="m0 0 1.607-4.03h5.204L2.602-6.519l1.607-4.029L0-8.059l-4.207-2.489L-2.6-6.519-6.809-4.03h5.202z" transform="matrix(1.33333 0 0 -1.33333 20.347 4.913)"/></svg>
