<svg xmlns="http://www.w3.org/2000/svg" width="28" height="30"><path fill="#b21e22" fill-opacity="1" fill-rule="nonzero" stroke="none" d="m0 0-8.894 5.133v10.274L0 10.273Z" transform="matrix(1.33333 0 0 -1.33333 14 28.696)"/><path fill="none" stroke="#000" stroke-dasharray="none" stroke-linecap="round" stroke-linejoin="round" stroke-miterlimit="4" stroke-opacity="1" stroke-width=".7" d="m0 0-8.894 5.133v10.274L0 10.273Z" transform="matrix(1.33333 0 0 -1.33333 14 28.696)"/><path fill="#b43" fill-opacity="1" fill-rule="nonzero" stroke="none" d="m0 0-8.898 5.136L0 10.272l8.896-5.136Z" transform="matrix(1.33333 0 0 -1.33333 14 15)"/><path fill="none" stroke="#000" stroke-dasharray="none" stroke-linecap="round" stroke-linejoin="round" stroke-miterlimit="4" stroke-opacity="1" stroke-width=".7" d="m0 0-8.898 5.136L0 10.272l8.896-5.136Z" transform="matrix(1.33333 0 0 -1.33333 14 15)"/><path fill="#981619" fill-opacity="1" fill-rule="nonzero" stroke="none" d="m0 0-8.893-5.132V5.141L0 10.274Z" transform="matrix(1.33333 0 0 -1.33333 25.858 21.854)"/><path fill="none" stroke="#000" stroke-dasharray="none" stroke-linecap="round" stroke-linejoin="round" stroke-miterlimit="4" stroke-opacity="1" stroke-width=".7" d="m0 0-8.893-5.132V5.141L0 10.274Z" transform="matrix(1.33333 0 0 -1.33333 25.858 21.854)"/></svg>
