<svg xmlns="http://www.w3.org/2000/svg" width="40" height="32"><defs><linearGradient id="a" x1="0" x2="1" y1="0" y2="0" gradientTransform="matrix(27.7207 0 0 -27.7207 1.14 694.494)" gradientUnits="userSpaceOnUse" spreadMethod="pad"><stop offset="0" stop-color="#780d18"/><stop offset=".469" stop-color="#b21e23"/><stop offset="1" stop-color="#780d18"/></linearGradient></defs><path fill="url(#a)" d="M1.14 692.28v-4.796C1.14 682.799 7.347 679 15 679c7.656 0 13.86 3.798 13.86 8.483v5.01z" transform="matrix(1.33333 0 0 -1.33333 0 936)"/><path fill="none" stroke="#000" stroke-width=".9333309999999999" d="M38.48 12.677v6.68c0 6.247-8.273 11.31-18.479 11.31S1.52 25.603 1.52 19.359v-6.396"/><path fill="#b21e22" d="M38.48 12.642c0 6.244-8.273 11.31-18.479 11.31S1.52 18.886 1.52 12.642c0-6.245 8.276-11.305 18.481-11.305 10.206 0 18.48 5.06 18.48 11.307"/><path fill="none" stroke="#000" stroke-width=".9333309999999999" d="M38.48 12.642c0 6.244-8.273 11.31-18.479 11.31S1.52 18.886 1.52 12.642c0-6.245 8.276-11.305 18.481-11.305 10.206 0 18.48 5.06 18.48 11.307z"/></svg>
