<svg xmlns="http://www.w3.org/2000/svg" width="40" height="40"><defs><linearGradient id="a" x1="0" x2="1" y1="0" y2="0" gradientTransform="matrix(27.7188 0 0 -27.7188 285.35 462.25)" gradientUnits="userSpaceOnUse" spreadMethod="pad"><stop offset="0" stop-color="#780d18" stop-opacity="1"/><stop offset=".469" stop-color="#b21e23" stop-opacity="1"/><stop offset="1" stop-color="#780d18" stop-opacity="1"/></linearGradient><clipPath id="b" clipPathUnits="userSpaceOnUse"><path d="M0 0h504v702H0Z"/></clipPath></defs><path fill="url(#a)" stroke="none" d="M285.35 460.035v-10.113c0-4.687 6.205-8.483 13.86-8.483 7.654 0 13.859 3.796 13.859 8.483v10.327z" transform="matrix(1.33333 0 0 -1.33333 -378.946 626.796)"/><g clip-path="url(#b)" transform="matrix(1.33333 0 0 -1.33333 -378.946 626.796)"><path fill="none" stroke="#000" stroke-dasharray="none" stroke-linecap="butt" stroke-linejoin="miter" stroke-miterlimit="4" stroke-opacity="1" stroke-width=".7" d="M0 0v-10.328c0-4.686-6.205-8.482-13.859-8.482-7.655 0-13.86 3.796-13.86 8.482V-.215" transform="translate(313.069 460.25)"/><path fill="#b21e22" fill-opacity="1" fill-rule="nonzero" stroke="none" d="M0 0c0-4.685-6.205-8.48-13.859-8.48-7.655 0-13.86 3.795-13.86 8.48 0 4.683 6.205 8.479 13.86 8.479C-6.205 8.479 0 4.683 0 0" transform="translate(313.069 460.276)"/><path fill="none" stroke="#000" stroke-dasharray="none" stroke-linecap="butt" stroke-linejoin="miter" stroke-miterlimit="4" stroke-opacity="1" stroke-width=".7" d="M0 0c0-4.685-6.205-8.48-13.859-8.48-7.655 0-13.86 3.795-13.86 8.48 0 4.683 6.205 8.479 13.86 8.479C-6.205 8.479 0 4.683 0 0Z" transform="translate(313.069 460.276)"/><path fill="#f1b81b" fill-opacity="1" fill-rule="nonzero" stroke="none" d="M0 0c-.465-.087-.756-.12-1.023-.195-2.161-.622-4.356-.496-6.569-.214-.519.066-.701.243-.793.618-.097.38-.355.738-.543 1.106h-.488c-1.838-.964-3.885-.964-5.977-.721-.349.041-.685.152-1.025.231V.459c.113-.179.254-.348.336-.534 1.416-3.095 2.82-6.193 4.227-9.288l.544-1.193h.612c-.342.757-.686 1.515-1.022 2.274-.09.203-.088.427-.129.641l-.019-.011-.006.045c-.133.158-.297.309-.377.482-1.041 2.27-2.07 4.543-3.096 6.815-.049.106-.054.222.034.377.328-.342.742-.656.972-1.033 1.199-1.977 2.567-3.924 2.418-6.2-.01-.146.027-.294.049-.441a.26.26 0 0 1 .025-.031v-.003c.444.253.866.533 1.34.748.576.262 1.168.526 1.801.679.818.199 1.377-.13 1.402-.78.022-.546.368-.785 1.061-.767.459.012.945-.022 1.367.081 1.883.459 3.633.203 5.332-.463.289-.114.582-.224.873-.337l.172.095C.055-5.711-1.119-3.01 0 0" transform="translate(306.286 464.047)"/></g></svg>
